HIERARCHY
ROOT Hips
{
	OFFSET	0.00	0.00	0.00
	CHANNELS 6 Xposition Yposition Zposition Zrotation Xrotation Yrotation
	JOINT LeftUpLeg
	{
		OFFSET	 0.126116	-0.065224	 0.014019
		CHANNELS 3 Zrotation Xrotation Yrotation
		JOINT LeftLeg
		{
			OFFSET	 0.000000	 0.569914	 0.000000
			CHANNELS 3 Zrotation Xrotation Yrotation
			JOINT LeftFoot
			{
				OFFSET	 0.000000	 0.544423	 0.000000
				CHANNELS 3 Zrotation Xrotation Yrotation
				JOINT LeftToeBase
				{
					OFFSET	 0.000000	 0.207117	 0.000000
					CHANNELS 3 Zrotation Xrotation Yrotation
					End Site
					{
						OFFSET	 0.000000	 0.207117	 0.000000
					}
				}
			}
		}
	}
	JOINT RightUpLeg
	{
		OFFSET	-0.124023	-0.065224	 0.008373
		CHANNELS 3 Zrotation Xrotation Yrotation
		JOINT RightLeg
		{
			OFFSET	 0.000000	 0.570047	 0.000000
			CHANNELS 3 Zrotation Xrotation Yrotation
			JOINT RightFoot
			{
				OFFSET	 0.000000	 0.544354	 0.000000
				CHANNELS 3 Zrotation Xrotation Yrotation
				JOINT RightToeBase
				{
					OFFSET	 0.000000	 0.207540	 0.000000
					CHANNELS 3 Zrotation Xrotation Yrotation
					End Site
					{
						OFFSET	 0.000000	 0.207540	 0.000000
					}
				}
			}
		}
	}
	JOINT Spine
	{
		OFFSET	 0.000184	 0.117403	 0.007763
		CHANNELS 3 Zrotation Xrotation Yrotation
		JOINT Spine1
		{
			OFFSET	 0.000000	 0.137269	 0.000000
			CHANNELS 3 Zrotation Xrotation Yrotation
			JOINT Spine2
			{
				OFFSET	 0.000000	 0.156879	 0.000000
				CHANNELS 3 Zrotation Xrotation Yrotation
				JOINT LeftShoulder
				{
					OFFSET	 0.080501	 0.160143	 0.002496
					CHANNELS 3 Zrotation Xrotation Yrotation
					JOINT LeftArm
					{
						OFFSET	 0.000000	 0.164363	 0.000000
						CHANNELS 3 Zrotation Xrotation Yrotation
						JOINT LeftForeArm
						{
							OFFSET	 0.000000	 0.364576	 0.000000
							CHANNELS 3 Zrotation Xrotation Yrotation
							JOINT LeftHand
							{
								OFFSET	 0.000000	 0.360812	 0.000000
								CHANNELS 3 Zrotation Xrotation Yrotation
								JOINT LeftHandIndex1
								{
									OFFSET	 0.000000	 0.086006	 0.000000
									CHANNELS 3 Zrotation Xrotation Yrotation
									JOINT LeftHandIndex2
									{
										OFFSET	 0.000000	 0.047237	 0.000000
										CHANNELS 3 Zrotation Xrotation Yrotation
										JOINT LeftHandIndex3
										{
											OFFSET	-0.004284	 0.038165	 0.000551
											CHANNELS 3 Zrotation Xrotation Yrotation
											End Site
											{
												OFFSET	-0.004284	 0.038165	 0.000551
											}
										}
									}
								}
							}
						}
					}
				}
				JOINT Neck
				{
					OFFSET	 0.000000	 0.176489	 0.000000
					CHANNELS 3 Zrotation Xrotation Yrotation
					JOINT Head
					{
						OFFSET	 0.000000	 0.077941	 0.001747
						CHANNELS 3 Zrotation Xrotation Yrotation
						End Site
						{
							OFFSET	 0.000000	 0.077941	 0.001747
						}
					}
				}
				JOINT RightShoulder
				{
					OFFSET	-0.080363	 0.159706	-0.000306
					CHANNELS 3 Zrotation Xrotation Yrotation
					JOINT RightArm
					{
						OFFSET	 0.000000	 0.164196	 0.000000
						CHANNELS 3 Zrotation Xrotation Yrotation
						JOINT RightForeArm
						{
							OFFSET	 0.000000	 0.365611	 0.000000
							CHANNELS 3 Zrotation Xrotation Yrotation
							JOINT RightHand
							{
								OFFSET	 0.000000	 0.360648	 0.000000
								CHANNELS 3 Zrotation Xrotation Yrotation
								JOINT RightHandIndex1
								{
									OFFSET	 0.000000	 0.069977	 0.000000
									CHANNELS 3 Zrotation Xrotation Yrotation
									JOINT RightHandIndex2
									{
										OFFSET	 0.000000	 0.052305	 0.000000
										CHANNELS 3 Zrotation Xrotation Yrotation
										JOINT RightHandIndex3
										{
											OFFSET	 0.009002	 0.042196	 0.000782
											CHANNELS 3 Zrotation Xrotation Yrotation
											End Site
											{
												OFFSET	 0.009002	 0.042196	 0.000782
											}
										}
									}
								}
							}
						}
					}
				}
			}
		}
	}
}
MOTION
Frames:    8
Frame Time: 0.03333334
-0.002438	 1.299137	-0.020144	 0.116269	 2.579881	-178.615000	 177.757100	 3.825401	 7.108735	 3.335618	-16.421250	 5.671275	 3.030760	 65.693330	-0.916631	 1.331492	 28.938720	-2.729976	-178.194700	 3.665913	 1.302316	-5.039526	-16.161620	-4.638424	 5.128100	 65.907140	-5.873959	-1.312584	 28.672410	 2.307287	-0.933586	 1.480815	-1.924784	-1.315680	 7.389250	-1.600582	-1.268800	-8.543235	 1.250187	-113.447600	 4.759678	 92.838730	-8.090010	 48.500430	 50.141630	 37.223010	-1.792945	 0.520006	-33.943710	-46.367880	-31.235660	-6.580301	 5.266122	 0.000000	 0.000000	 0.000000	 0.000000	 0.000000	 0.000000	 0.000000	 3.155036	-1.434350	 0.543205	 0.344685	 0.775901	 2.911485	 114.172500	-4.207836	-88.650990	-57.054520	 0.973507	 63.205460	-59.491040	-1.941389	-1.050917	-60.140830	-63.782940	-39.663960	-0.359451	 10.573210	 0.744505	 11.977700	 9.308210	-2.094141	-8.359030	 3.145662	 0.104594
-0.003797	 1.298919	-0.021075	 0.108083	 2.580356	-179.069500	 177.727300	 3.803245	 6.633956	 3.367121	-16.660590	 5.224673	 2.306856	 65.892780	-0.018316	 1.331492	 28.938720	-2.729976	-178.134900	 3.750519	 0.697490	-5.129554	-16.434130	-5.314840	 3.779261	 65.978210	-4.315117	-1.314349	 28.696370	 2.259570	-0.831596	 1.596576	-2.055589	-1.163565	 7.056468	-1.690271	-1.129287	-8.115860	 1.297273	-113.446100	 5.000014	 92.926100	-9.159257	 47.208520	 50.261620	 36.904950	-1.779781	 0.510068	-35.393250	-46.427490	-32.240940	-6.580301	 5.266122	 0.000000	 0.000000	 0.000000	 0.000000	 0.000000	 0.000000	 0.000000	 2.949862	-1.328280	 0.802218	-0.740448	 1.046879	 3.268768	 114.177400	-4.247596	-88.629610	-61.463600	 4.671062	 61.201430	-62.331930	-1.995690	-1.148527	-69.484050	-83.204020	-53.739160	-0.359384	 10.571410	 0.744487	 11.977680	 9.306443	-2.093760	-8.359012	 3.144764	 0.104660
-0.005505	 1.298839	-0.021317	 0.220991	 2.569282	 179.417600	 177.845800	 3.784945	 5.026429	 3.427806	-16.849180	 4.288662	 0.119343	 66.171560	 2.437738	 1.331492	 28.938720	-2.729976	-177.965500	 3.988067	-0.931649	-5.170278	-16.557170	-6.653326	 1.019040	 65.925330	-1.122400	-1.316082	 28.720240	 2.215380	-0.735414	 1.703085	-1.780403	-0.969459	 6.817331	-1.436866	-1.067563	-7.824825	 1.110133	-113.446300	 5.243753	 93.031810	-10.287880	 45.934660	 50.538080	 36.681990	-1.770505	 0.503161	-34.880670	-46.191960	-30.509440	-6.580301	 5.266122	 0.000000	 0.000000	 0.000000	 0.000000	 0.000000	 0.000000	 0.000000	 3.070555	-1.169698	 0.798598	-0.854400	 1.177695	 3.261801	 114.172200	-4.212212	-88.657530	-63.582230	 5.519175	 52.537210	-68.867770	-2.101699	-1.382422	-69.061580	-76.600910	-54.041870	-0.359320	 10.569700	 0.744470	 11.977650	 9.304759	-2.093397	-8.358996	 3.143910	 0.104721
-0.007931	 1.298880	-0.020818	 0.434188	 2.540432	 176.930900	 178.071800	 3.793996	 2.536207	 3.467170	-17.031330	 2.706167	-3.446734	 66.417180	 6.392157	 1.331492	 28.938720	-2.729976	-177.703500	 4.383051	-3.546806	-5.168892	-16.552990	-8.693160	-3.129312	 65.601890	 3.708189	-1.318187	 28.749640	 2.162865	-0.618035	 1.839903	-1.408968	-0.765249	 6.622052	-1.119266	-0.996586	-7.537038	 0.764795	-113.448000	 5.546720	 93.173070	-11.790070	 44.349640	 51.027810	 36.400800	-1.758869	 0.494451	-33.289650	-45.406910	-27.255940	-6.580301	 5.266122	 0.000000	 0.000000	 0.000000	 0.000000	 0.000000	 0.000000	 0.000000	 3.409847	-0.943700	 0.640131	-0.429007	 1.260464	 3.044500	 114.159900	-4.124769	-88.720680	-68.261410	 2.277974	 37.446040	-79.485080	-2.215285	-1.783488	-58.607330	-52.548660	-48.696590	-0.359241	 10.567640	 0.744448	 11.977630	 9.302730	-2.092957	-8.358978	 3.142882	 0.104793
-0.009122	 1.298801	-0.021095	 0.669183	 2.424014	 175.261200	 178.318000	 3.914309	 0.995781	 3.531487	-17.328150	 1.690265	-5.856210	 66.619610	 9.023722	 1.331492	 28.938720	-2.729976	-177.497900	 4.549215	-5.195401	-5.120463	-16.406670	-9.778045	-5.354389	 65.293720	 6.251217	-1.320163	 28.777640	 2.114697	-0.589627	 1.965655	-0.763511	-0.857485	 6.393004	-0.609062	-0.938116	-7.166526	 0.135581	-113.449700	 5.705180	 93.252920	-12.086860	 43.977620	 50.799050	 37.182510	-1.791283	 0.518722	-30.443220	-44.851540	-23.005100	-6.580301	 5.266122	 0.000000	 0.000000	 0.000000	 0.000000	 0.000000	 0.000000	 0.000000	 3.815692	-0.715688	 0.354829	 0.665147	 1.386203	 2.440284	 114.147000	-4.027388	-88.783550	-71.193620	-0.621062	 23.904620	-91.495230	-2.252319	-2.253290	-50.857820	-34.112340	-47.646180	-0.359168	 10.565720	 0.744427	 11.977600	 9.300846	-2.092549	-8.358964	 3.141928	 0.104860
-0.008895	 1.298615	-0.022079	 0.914057	 2.215572	 174.786500	 178.555300	 4.207571	 0.800253	 3.625782	-17.761530	 1.466385	-6.553158	 66.832210	 9.728223	 1.331492	 28.938720	-2.729976	-177.406900	 4.470973	-5.462165	-5.021009	-16.105440	-9.547643	-5.018001	 65.132930	 5.760132	-1.321787	 28.800930	 2.077044	-0.669776	 2.071044	-0.002222	-1.097000	 6.116313	-0.083894	-0.989508	-6.693443	-0.790115	-113.450400	 5.666437	 93.247580	-11.047670	 44.775750	 49.798070	 38.876550	-1.860175	 0.572667	-26.003980	-44.066250	-18.353540	-6.580301	 5.266122	 0.000000	 0.000000	 0.000000	 0.000000	 0.000000	 0.000000	 0.000000	 4.262447	-0.510597	-0.058783	 2.480400	 1.534890	 1.410285	 114.134700	-3.927830	-88.839480	-73.621200	-1.386308	 10.188700	-105.783800	-2.168195	-2.807325	-42.570150	-24.818570	-50.652830	-0.359109	 10.564190	 0.744408	 11.977570	 9.299344	-2.092221	-8.358952	 3.141170	 0.104912
-0.008828	 1.298349	-0.023467	 1.143897	 2.006841	 174.626600	 178.704700	 4.451303	 0.880062	 3.721322	-18.198360	 1.555898	-6.509508	 67.123750	 9.651321	 1.331492	 28.938720	-2.729976	-177.306000	 4.353677	-5.410631	-4.949110	-15.887090	-9.086588	-4.270739	 65.061250	 4.749204	-1.323523	 28.826120	 2.037086	-0.776900	 2.190404	 0.970413	-1.401693	 5.580836	 0.611412	-1.033473	-6.031308	-1.797607	-113.450600	 5.601437	 93.226940	-8.568737	 46.451210	 47.791110	 39.984210	-1.904427	 0.609065	-20.821820	-41.452170	-12.786450	-6.580301	 5.266122	 0.000000	 0.000000	 0.000000	 0.000000	 0.000000	 0.000000	 0.000000	 4.716818	-0.317015	-0.491882	 4.343518	 1.659654	 0.365215	 114.124600	-3.839917	-88.883690	-71.423410	-4.777905	 4.492939	-114.779700	-2.045806	-3.138668	-36.529930	-17.030990	-47.327140	-0.359047	 10.562560	 0.744389	 11.977550	 9.297747	-2.091873	-8.358938	 3.140365	 0.104966
-0.010304	 1.298060	-0.025447	 1.088363	 2.025179	 176.731900	 178.238100	 4.400111	 2.680601	 3.766108	-18.332310	 3.633250	-1.658244	 67.387330	 4.434255	 1.331492	 28.938720	-2.729976	-177.474000	 4.050261	-3.322927	-5.032655	-16.140750	-7.634012	-1.327228	 65.427700	 1.340852	-1.324149	 28.835270	 2.027313	-0.972415	 2.122699	 1.154254	-1.559291	 5.496939	 0.466038	-1.067324	-6.035768	-2.464046	-113.447700	 5.434364	 93.127440	-4.172527	 49.161320	 45.035180	 39.177330	-1.872262	 0.582478	-17.079560	-38.760170	-10.386020	-6.580301	 5.266122	 0.000000	 0.000000	 0.000000	 0.000000	 0.000000	 0.000000	 0.000000	 4.693751	-0.399681	-0.550779	 4.405772	 1.641110	 0.388094	 114.139600	-3.930517	-88.798840	-54.129570	-0.353539	 35.505070	-104.498700	-2.181376	-2.758443	-41.422780	-22.454490	-44.251640	-0.359028	 10.562150	 0.744379	 11.977540	 9.297341	-2.091780	-8.358936	 3.140164	 0.104975
